<svg width="93" height="18" viewBox="0 0 93 18" fill="none" xmlns="http://www.w3.org/2000/svg">
<path d="M0.96 12V3.6H2.88L5.112 11.364H5.268L7.5 3.6H9.42V12H8.448V4.26H8.28L6.06 12H4.32L2.1 4.26H1.932V12H0.96ZM14.3908 12.168C13.3908 12.168 12.5908 11.88 11.9908 11.304C11.3988 10.72 11.1028 9.872 11.1028 8.76V6.84C11.1028 5.728 11.3988 4.884 11.9908 4.308C12.5908 3.724 13.3908 3.432 14.3908 3.432C15.3988 3.432 16.1988 3.724 16.7908 4.308C17.3908 4.884 17.6908 5.728 17.6908 6.84V8.76C17.6908 9.872 17.3908 10.72 16.7908 11.304C16.1988 11.88 15.3988 12.168 14.3908 12.168ZM14.3908 11.268C15.1188 11.268 15.6828 11.052 16.0828 10.62C16.4828 10.18 16.6828 9.572 16.6828 8.796V6.804C16.6828 6.028 16.4828 5.424 16.0828 4.992C15.6828 4.552 15.1188 4.332 14.3908 4.332C13.6708 4.332 13.1108 4.552 12.7108 4.992C12.3108 5.424 12.1108 6.028 12.1108 6.804V8.796C12.1108 9.572 12.3108 10.18 12.7108 10.62C13.1108 11.052 13.6708 11.268 14.3908 11.268ZM21.0664 12L18.5344 3.6H19.5784L21.8704 11.388H22.0264L24.3184 3.6H25.3624L22.8304 12H21.0664ZM26.6241 12V3.6H27.6321V12H26.6241ZM29.5538 12V3.6H34.7258V4.512H30.5618V7.32H34.3898V8.232H30.5618V11.088H34.7858V12H29.5538Z" fill="white"/>
<path d="M38.9895 12V9.984L43.1415 5.208V5.016H39.1095V3.6H44.7975V5.616L40.6455 10.392V10.584H44.8215V12H38.9895ZM49.2669 12.168C48.2109 12.168 47.3709 11.88 46.7469 11.304C46.1229 10.72 45.8109 9.888 45.8109 8.808V6.792C45.8109 5.712 46.1229 4.884 46.7469 4.308C47.3709 3.724 48.2109 3.432 49.2669 3.432C50.3229 3.432 51.1629 3.724 51.7869 4.308C52.4109 4.884 52.7229 5.712 52.7229 6.792V8.808C52.7229 9.888 52.4109 10.72 51.7869 11.304C51.1629 11.88 50.3229 12.168 49.2669 12.168ZM49.2669 10.752C49.8589 10.752 50.3189 10.58 50.6469 10.236C50.9749 9.892 51.1389 9.432 51.1389 8.856V6.744C51.1389 6.168 50.9749 5.708 50.6469 5.364C50.3189 5.02 49.8589 4.848 49.2669 4.848C48.6829 4.848 48.2229 5.02 47.8869 5.364C47.5589 5.708 47.3949 6.168 47.3949 6.744V8.856C47.3949 9.432 47.5589 9.892 47.8869 10.236C48.2229 10.58 48.6829 10.752 49.2669 10.752ZM54.1123 12V3.6H57.1243L58.7923 10.92H59.0083V3.6H60.5683V12H57.5563L55.8883 4.68H55.6723V12H54.1123ZM62.1514 12V3.6H67.5514V5.04H63.7354V7.044H67.2154V8.484H63.7354V10.56H67.6234V12H62.1514Z" fill="#FF0000"/>
</svg>
